<svg width="384" height="107" viewBox="0 0 384 107" fill="none" xmlns="http://www.w3.org/2000/svg">
<g filter="url(#filter0_d_22_104)">
<path d="M33.5039 72V35.6364H49.271C52.0408 35.6364 54.3668 36.0092 56.2489 36.755C58.1429 37.5007 59.5692 38.5542 60.5281 39.9155C61.4987 41.2768 61.984 42.8807 61.984 44.7273C61.984 46.0649 61.6881 47.2841 61.0962 48.3849C60.5162 49.4858 59.6995 50.4091 58.646 51.1548C57.5924 51.8887 56.3614 52.3977 54.9528 52.6818V53.0369C56.5153 53.0961 57.9357 53.4927 59.2141 54.2266C60.4925 54.9486 61.5105 55.9489 62.2681 57.2273C63.0257 58.4938 63.4045 59.9853 63.4045 61.7017C63.4045 63.6903 62.8836 65.46 61.842 67.0107C60.8121 68.5613 59.3443 69.7805 57.4386 70.6683C55.5328 71.5561 53.2601 72 50.6204 72H33.5039ZM43.3761 64.1165H47.9925C49.6497 64.1165 50.8926 63.8087 51.7212 63.1932C52.5498 62.5658 52.9641 61.6425 52.9641 60.4233C52.9641 59.571 52.7688 58.849 52.3782 58.2571C51.9876 57.6652 51.4312 57.2154 50.7092 56.9077C49.9989 56.5999 49.1407 56.446 48.1346 56.446H43.3761V64.1165ZM43.3761 50.3381H47.4244C48.2885 50.3381 49.052 50.2019 49.7148 49.9297C50.3777 49.6574 50.8926 49.2668 51.2596 48.7578C51.6384 48.237 51.8278 47.6037 51.8278 46.858C51.8278 45.7334 51.4253 44.8752 50.6204 44.2834C49.8155 43.6797 48.7975 43.3778 47.5664 43.3778H43.3761V50.3381ZM74.6438 72.4261C72.9038 72.4261 71.3649 72.142 70.0273 71.5739C68.7016 70.9938 67.6599 70.1179 66.9023 68.946C66.1448 67.7741 65.766 66.2827 65.766 64.4716C65.766 62.9801 66.0205 61.7076 66.5295 60.6541C67.0385 59.5888 67.7487 58.7188 68.6602 58.044C69.5716 57.3693 70.631 56.8544 71.8384 56.4993C73.0576 56.1442 74.3716 55.9134 75.7802 55.8068C77.3072 55.6884 78.5323 55.5464 79.4556 55.3807C80.3907 55.2031 81.0655 54.9605 81.4798 54.6527C81.8941 54.3331 82.1012 53.9129 82.1012 53.392V53.321C82.1012 52.6108 81.829 52.0663 81.2844 51.6875C80.7399 51.3087 80.0415 51.1193 79.1893 51.1193C78.2541 51.1193 77.4906 51.3265 76.8988 51.7408C76.3188 52.1432 75.9696 52.7647 75.8512 53.6051H66.8313C66.9497 51.9479 67.4764 50.4209 68.4116 49.0241C69.3585 47.6155 70.7376 46.491 72.5487 45.6506C74.3597 44.7983 76.6206 44.3722 79.3313 44.3722C81.2844 44.3722 83.0363 44.603 84.587 45.0646C86.1377 45.5144 87.4575 46.1477 88.5465 46.9645C89.6355 47.7694 90.4641 48.7164 91.0323 49.8054C91.6123 50.8826 91.9023 52.0545 91.9023 53.321V72H82.7404V68.1648H82.5273C81.9828 69.1828 81.32 70.0054 80.5387 70.6328C79.7693 71.2602 78.8874 71.7159 77.8931 72C76.9106 72.2841 75.8275 72.4261 74.6438 72.4261ZM77.8398 66.2472C78.5856 66.2472 79.284 66.0933 79.935 65.7855C80.5979 65.4777 81.1365 65.0339 81.5508 64.4538C81.9651 63.8738 82.1722 63.1695 82.1722 62.3409V60.0682C81.9118 60.1747 81.6336 60.2753 81.3377 60.37C81.0536 60.4647 80.7459 60.5535 80.4144 60.6364C80.0948 60.7192 79.7515 60.7962 79.3846 60.8672C79.0295 60.9382 78.6566 61.0033 78.266 61.0625C77.5084 61.1809 76.887 61.3762 76.4016 61.6484C75.9281 61.9089 75.573 62.2344 75.3363 62.625C75.1114 63.0038 74.9989 63.4299 74.9989 63.9034C74.9989 64.661 75.2653 65.241 75.7979 65.6435C76.3306 66.0459 77.0112 66.2472 77.8398 66.2472ZM96.8695 72V66.6023L108.801 52.3267V52.1847H97.2956V44.7273H120.378V50.6932L109.512 64.4006V64.5426H120.804V72H96.8695ZM126.508 72V66.6023L138.44 52.3267V52.1847H126.934V44.7273H150.017V50.6932L139.15 64.4006V64.5426H150.443V72H126.508ZM163.462 72.4261C161.722 72.4261 160.183 72.142 158.846 71.5739C157.52 70.9938 156.478 70.1179 155.721 68.946C154.963 67.7741 154.584 66.2827 154.584 64.4716C154.584 62.9801 154.839 61.7076 155.348 60.6541C155.857 59.5888 156.567 58.7188 157.479 58.044C158.39 57.3693 159.449 56.8544 160.657 56.4993C161.876 56.1442 163.19 55.9134 164.599 55.8068C166.126 55.6884 167.351 55.5464 168.274 55.3807C169.209 55.2031 169.884 54.9605 170.298 54.6527C170.712 54.3331 170.92 53.9129 170.92 53.392V53.321C170.92 52.6108 170.647 52.0663 170.103 51.6875C169.558 51.3087 168.86 51.1193 168.008 51.1193C167.073 51.1193 166.309 51.3265 165.717 51.7408C165.137 52.1432 164.788 52.7647 164.67 53.6051H155.65C155.768 51.9479 156.295 50.4209 157.23 49.0241C158.177 47.6155 159.556 46.491 161.367 45.6506C163.178 44.7983 165.439 44.3722 168.15 44.3722C170.103 44.3722 171.855 44.603 173.405 45.0646C174.956 45.5144 176.276 46.1477 177.365 46.9645C178.454 47.7694 179.282 48.7164 179.851 49.8054C180.431 50.8826 180.721 52.0545 180.721 53.321V72H171.559V68.1648H171.346C170.801 69.1828 170.138 70.0054 169.357 70.6328C168.588 71.2602 167.706 71.7159 166.711 72C165.729 72.2841 164.646 72.4261 163.462 72.4261ZM166.658 66.2472C167.404 66.2472 168.102 66.0933 168.753 65.7855C169.416 65.4777 169.955 65.0339 170.369 64.4538C170.783 63.8738 170.991 63.1695 170.991 62.3409V60.0682C170.73 60.1747 170.452 60.2753 170.156 60.37C169.872 60.4647 169.564 60.5535 169.233 60.6364C168.913 60.7192 168.57 60.7962 168.203 60.8672C167.848 60.9382 167.475 61.0033 167.084 61.0625C166.327 61.1809 165.705 61.3762 165.22 61.6484C164.747 61.9089 164.391 62.2344 164.155 62.625C163.93 63.0038 163.817 63.4299 163.817 63.9034C163.817 64.661 164.084 65.241 164.616 65.6435C165.149 66.0459 165.83 66.2472 166.658 66.2472ZM185.404 72V44.7273H194.921V49.9119H195.205C195.702 47.9943 196.489 46.5916 197.566 45.7038C198.655 44.8161 199.928 44.3722 201.384 44.3722C201.81 44.3722 202.23 44.4077 202.645 44.4787C203.071 44.5379 203.479 44.6267 203.87 44.745V53.108C203.384 52.9422 202.787 52.8179 202.076 52.7351C201.366 52.6522 200.757 52.6108 200.248 52.6108C199.289 52.6108 198.425 52.8298 197.655 53.2678C196.898 53.6939 196.3 54.2976 195.862 55.0788C195.424 55.8482 195.205 56.7538 195.205 57.7955V72H185.404ZM216.885 35.6364L224.342 61.2756H224.626L232.083 35.6364H243.234L231.231 72H217.737L205.734 35.6364H216.885ZM256.48 72.4972C253.568 72.4972 251.058 71.9408 248.951 70.8281C246.856 69.7036 245.24 68.0937 244.104 65.9986C242.98 63.8916 242.417 61.3703 242.417 58.4347C242.417 55.6174 242.985 53.1553 244.122 51.0483C245.258 48.9413 246.862 47.3018 248.934 46.13C251.005 44.9581 253.449 44.3722 256.267 44.3722C258.326 44.3722 260.191 44.6918 261.86 45.331C263.529 45.9702 264.955 46.8994 266.139 48.1186C267.323 49.326 268.234 50.7938 268.873 52.522C269.512 54.2502 269.832 56.1974 269.832 58.3636V60.6364H245.471V55.2386H260.812C260.8 54.4574 260.599 53.7708 260.208 53.179C259.83 52.5753 259.315 52.1077 258.664 51.7763C258.025 51.433 257.297 51.2614 256.48 51.2614C255.687 51.2614 254.959 51.433 254.296 51.7763C253.633 52.1077 253.1 52.5694 252.698 53.1612C252.307 53.7531 252.1 54.4455 252.076 55.2386V61.0625C252.076 61.9384 252.26 62.7197 252.627 63.4062C252.994 64.0928 253.52 64.6314 254.207 65.022C254.894 65.4126 255.722 65.608 256.693 65.608C257.368 65.608 257.983 65.5133 258.539 65.3239C259.108 65.1345 259.593 64.8622 259.995 64.5071C260.398 64.1402 260.694 63.7022 260.883 63.1932H269.832C269.524 65.0871 268.796 66.7325 267.648 68.1293C266.5 69.5142 264.979 70.5914 263.085 71.3608C261.203 72.1184 259.001 72.4972 256.48 72.4972ZM273.831 72V44.7273H283.349V49.9119H283.633C284.13 47.9943 284.917 46.5916 285.994 45.7038C287.083 44.8161 288.356 44.3722 289.812 44.3722C290.238 44.3722 290.658 44.4077 291.072 44.4787C291.498 44.5379 291.907 44.6267 292.297 44.745V53.108C291.812 52.9422 291.214 52.8179 290.504 52.7351C289.794 52.6522 289.184 52.6108 288.675 52.6108C287.716 52.6108 286.852 52.8298 286.083 53.2678C285.325 53.6939 284.728 54.2976 284.29 55.0788C283.852 55.8482 283.633 56.7538 283.633 57.7955V72H273.831ZM320.44 53.6051H311.42C311.373 53.0488 311.178 52.5694 310.834 52.1669C310.491 51.7644 310.047 51.4567 309.503 51.2436C308.97 51.0187 308.378 50.9062 307.727 50.9062C306.887 50.9062 306.165 51.0601 305.561 51.3679C304.957 51.6757 304.661 52.1136 304.673 52.6818C304.661 53.0843 304.833 53.4571 305.188 53.8004C305.555 54.1437 306.259 54.41 307.301 54.5994L312.841 55.5938C315.634 56.1027 317.712 56.9609 319.073 58.1683C320.446 59.3639 321.139 60.9678 321.15 62.9801C321.139 64.9214 320.559 66.6082 319.41 68.0405C318.274 69.4609 316.717 70.5618 314.741 71.343C312.776 72.1125 310.532 72.4972 308.011 72.4972C303.845 72.4972 300.583 71.6449 298.228 69.9403C295.884 68.2358 294.576 65.9867 294.304 63.1932H304.034C304.164 64.0573 304.59 64.7261 305.312 65.1996C306.046 65.6612 306.97 65.892 308.082 65.892C308.982 65.892 309.722 65.7382 310.302 65.4304C310.894 65.1226 311.195 64.6847 311.207 64.1165C311.195 63.5956 310.935 63.1813 310.426 62.8736C309.929 62.5658 309.148 62.3172 308.082 62.1278L303.253 61.2756C300.471 60.7902 298.388 59.867 297.003 58.5057C295.618 57.1444 294.931 55.3925 294.943 53.25C294.931 51.3561 295.428 49.7521 296.434 48.4382C297.452 47.1125 298.903 46.1063 300.785 45.4197C302.679 44.7214 304.922 44.3722 307.514 44.3722C311.456 44.3722 314.563 45.1889 316.836 46.8224C319.12 48.456 320.322 50.7169 320.44 53.6051ZM337.974 72.4972C335.062 72.4972 332.552 71.9408 330.445 70.8281C328.35 69.7036 326.735 68.0937 325.598 65.9986C324.474 63.8916 323.911 61.3703 323.911 58.4347C323.911 55.6174 324.48 53.1553 325.616 51.0483C326.752 48.9413 328.356 47.3018 330.428 46.13C332.499 44.9581 334.944 44.3722 337.761 44.3722C339.82 44.3722 341.685 44.6918 343.354 45.331C345.023 45.9702 346.449 46.8994 347.633 48.1186C348.817 49.326 349.728 50.7938 350.367 52.522C351.007 54.2502 351.326 56.1974 351.326 58.3636V60.6364H326.965V55.2386H342.306C342.294 54.4574 342.093 53.7708 341.703 53.179C341.324 52.5753 340.809 52.1077 340.158 51.7763C339.519 51.433 338.791 51.2614 337.974 51.2614C337.181 51.2614 336.453 51.433 335.79 51.7763C335.127 52.1077 334.594 52.5694 334.192 53.1612C333.801 53.7531 333.594 54.4455 333.57 55.2386V61.0625C333.57 61.9384 333.754 62.7197 334.121 63.4062C334.488 64.0928 335.015 64.6314 335.701 65.022C336.388 65.4126 337.216 65.608 338.187 65.608C338.862 65.608 339.477 65.5133 340.034 65.3239C340.602 65.1345 341.087 64.8622 341.49 64.5071C341.892 64.1402 342.188 63.7022 342.377 63.1932H351.326C351.018 65.0871 350.29 66.7325 349.142 68.1293C347.994 69.5142 346.473 70.5914 344.579 71.3608C342.697 72.1184 340.495 72.4972 337.974 72.4972Z" fill="#092C4C"/>
</g>
<defs>
<filter id="filter0_d_22_104" x="29.5039" y="35.6364" width="325.822" height="44.8608" filterUnits="userSpaceOnUse" color-interpolation-filters="sRGB">
<feFlood flood-opacity="0" result="BackgroundImageFix"/>
<feColorMatrix in="SourceAlpha" type="matrix" values="0 0 0 0 0 0 0 0 0 0 0 0 0 0 0 0 0 0 127 0" result="hardAlpha"/>
<feOffset dy="4"/>
<feGaussianBlur stdDeviation="2"/>
<feComposite in2="hardAlpha" operator="out"/>
<feColorMatrix type="matrix" values="0 0 0 0 0 0 0 0 0 0 0 0 0 0 0 0 0 0 0.25 0"/>
<feBlend mode="normal" in2="BackgroundImageFix" result="effect1_dropShadow_22_104"/>
<feBlend mode="normal" in="SourceGraphic" in2="effect1_dropShadow_22_104" result="shape"/>
</filter>
</defs>
</svg>
