<svg width="31" height="37" viewBox="0 0 31 37" fill="none" xmlns="http://www.w3.org/2000/svg">
<path d="M0.144531 37V0.636363H15.9116C18.6815 0.636363 21.0075 1.00923 22.8896 1.75497C24.7835 2.50071 26.2099 3.55421 27.1687 4.91548C28.1393 6.27675 28.6246 7.88068 28.6246 9.72727C28.6246 11.0649 28.3287 12.2841 27.7369 13.3849C27.1568 14.4858 26.3401 15.4091 25.2866 16.1548C24.2331 16.8887 23.002 17.3977 21.5934 17.6818V18.0369C23.1559 18.0961 24.5764 18.4927 25.8548 19.2266C27.1332 19.9486 28.1512 20.9489 28.9087 22.2273C29.6663 23.4938 30.0451 24.9853 30.0451 26.7017C30.0451 28.6903 29.5243 30.46 28.4826 32.0107C27.4528 33.5613 25.985 34.7805 24.0792 35.6683C22.1734 36.5561 19.9007 37 17.261 37H0.144531ZM10.0167 29.1165H14.6332C16.2904 29.1165 17.5333 28.8087 18.3619 28.1932C19.1905 27.5658 19.6048 26.6425 19.6048 25.4233C19.6048 24.571 19.4094 23.849 19.0188 23.2571C18.6282 22.6652 18.0719 22.2154 17.3498 21.9077C16.6396 21.5999 15.7814 21.446 14.7752 21.446H10.0167V29.1165ZM10.0167 15.3381H14.065C14.9291 15.3381 15.6926 15.2019 16.3555 14.9297C17.0183 14.6574 17.5333 14.2668 17.9002 13.7578C18.279 13.237 18.4684 12.6037 18.4684 11.858C18.4684 10.7334 18.0659 9.87524 17.261 9.28338C16.4561 8.67969 15.4381 8.37784 14.207 8.37784H10.0167V15.3381Z" fill="#F25F5C"/>
</svg>
