<svg width="101" height="77" viewBox="0 0 101 77" fill="none" xmlns="http://www.w3.org/2000/svg">
<path d="M36.1445 57V20.6364H51.9116C54.6815 20.6364 57.0075 21.0092 58.8896 21.755C60.7835 22.5007 62.2099 23.5542 63.1687 24.9155C64.1393 26.2768 64.6246 27.8807 64.6246 29.7273C64.6246 31.0649 64.3287 32.2841 63.7369 33.3849C63.1568 34.4858 62.3401 35.4091 61.2866 36.1548C60.2331 36.8887 59.002 37.3977 57.5934 37.6818V38.0369C59.1559 38.0961 60.5764 38.4927 61.8548 39.2266C63.1332 39.9486 64.1512 40.9489 64.9087 42.2273C65.6663 43.4938 66.0451 44.9853 66.0451 46.7017C66.0451 48.6903 65.5243 50.46 64.4826 52.0107C63.4528 53.5613 61.985 54.7805 60.0792 55.6683C58.1734 56.5561 55.9007 57 53.261 57H36.1445ZM46.0167 49.1165H50.6332C52.2904 49.1165 53.5333 48.8087 54.3619 48.1932C55.1905 47.5658 55.6048 46.6425 55.6048 45.4233C55.6048 44.571 55.4094 43.849 55.0188 43.2571C54.6282 42.6652 54.0719 42.2154 53.3498 41.9077C52.6396 41.5999 51.7814 41.446 50.7752 41.446H46.0167V49.1165ZM46.0167 35.3381H50.065C50.9291 35.3381 51.6926 35.2019 52.3555 34.9297C53.0183 34.6574 53.5333 34.2668 53.9002 33.7578C54.279 33.237 54.4684 32.6037 54.4684 31.858C54.4684 30.7334 54.0659 29.8752 53.261 29.2834C52.4561 28.6797 51.4381 28.3778 50.207 28.3778H46.0167V35.3381Z" fill="#092C4C"/>
</svg>
